# AST/ASF file generated using VICON BodyLanguage
# -----------------------------------------------
:version 1.10
:name VICON
:units
  mass 1.0
  length 0.45
  angle deg
:documentation
   .ast/.asf automatically generated from VICON data using
   VICON BodyBuilder and BodyLanguage model FoxedUp or BRILLIANT.MOD
:root
   order TX TY TZ RX RY RZ
   axis XYZ
   position 0 0 0  
   orientation 0 0 0 
:bonedata
  begin
     id 1 
     name lhipjoint
     direction 0.624716 -0.669793 0.401383 
     length 2.38238 
     axis 0 0 0  XYZ
  end
  begin
     id 2 
     name lfemur
     direction 0.34202 -0.939693 0  
     length 6.4574  
     axis 0 0 20  XYZ
    dof rx ry rz
    limits (-160.0 20.0)
           (-70.0 70.0)
           (-60.0 70.0)
  end
  begin
     id 3 
     name ltibia
     direction 0.34202 -0.939693 0   
     length 7.68739   
     axis 0 0 20   XYZ
    dof rx
    limits (-10.0 170.0)
  end
  begin
     id 4 
     name lfoot
     direction 0.0681309 -0.187188 0.979959   
     length 2.46615   
     axis -90 7.62852e-016 20   XYZ
    dof rx rz
    limits (-45.0 90.0)
           (-70.0 20.0)
  end
  begin
     id 5 
     name ltoes
     direction 1.53566e-011 -4.21819e-011 1   
     length 1.2376   
     axis -90 7.62852e-016 20   XYZ
    dof rx
    limits (-90.0 20.0)
  end
  begin
     id 6 
     name rhipjoint
     direction -0.644473 -0.655875 0.393043   
     length 2.43293  
     axis 0 0 0  XYZ 
  end
  begin
     id 7 
     name rfemur
     direction -0.34202 -0.939693 0   
     length 6.7025   
     axis 0 0 -20   XYZ
    dof rx ry rz
    limits (-160.0 20.0)
           (-70.0 70.0)
           (-70.0 60.0)
  end
  begin
     id 8 
     name rtibia
     direction -0.34202 -0.939693 0   
     length 7.80547   
     axis 0 0 -20   XYZ
    dof rx
    limits (-10.0 170.0)
 end
 begin
     id 9 
     name rfoot
     direction -0.0756734 -0.207911 0.975216   
     length 2.40315  
     axis -90 -7.62852e-016 -20   XYZ
    dof rx rz
    limits (-45.0 90.0)
           (-20.0 70.0)
  end
  begin
     id 10 
     name rtoes
     direction -1.5353e-011 -4.21879e-011 1   
     length 1.20477   
     axis -90 -7.62852e-016 -20   XYZ
    dof rx
    limits (-90.0 20.0)
  end
  begin
     id 11 
     name lowerback
     direction 0.0160353 0.987463 -0.157037   
     length 2.18572   
     axis 0 0 0   XYZ
    dof rx ry rz
    limits (-20.0 45.0)
           (-30.0 30.0)
           (-30.0 30.0)
  end
  begin
     id 12 
     name upperback
     direction -0.00499661 0.999756 0.0215076   
     length 2.18016   
     axis 0 0 0   XYZ
    dof rx ry rz
    limits (-20.0 45.0)
           (-30.0 30.0)
           (-30.0 30.0)
  end
  begin
     id 13 
     name thorax
     direction -0.00921346 0.995333 0.0960619   
     length 2.24923   
     axis 0 0 0   XYZ
    dof rx ry rz
    limits (-20.0 45.0)
           (-30.0 30.0)
           (-30.0 30.0)
  end
  begin
     id 14 
     name lowerneck
     direction 0.0274184 0.991181 0.12965   
     length 1.70911   
     axis 0 0 0   XYZ
    dof rx ry rz
    limits (-20.0 45.0)
           (-30.0 30.0)
           (-30.0 30.0)
  end
  begin
     id 15 
     name upperneck
     direction 0.0015627 0.999959 -0.00893559   
     length 1.69312   
     axis 0 0 0   XYZ
    dof rx ry rz
    limits (-20.0 45.0)
           (-30.0 30.0)
           (-30.0 30.0)
  end
  begin
     id 16
     name head
     direction -0.00230242 0.999856 -0.0168327  
     length 1.80241  
     axis 0 0 0   XYZ
    dof rx ry rz
    limits (-20.0 45.0)
           (-30.0 30.0)
           (-30.0 30.0)
  end
  begin
     id 17 
     name lclavicle
     direction 0.955523 0.290741 -0.0494489  
     length 3.84275  
     axis 0 0 0   XYZ
    dof ry rz
    limits (-20.0 10.0)
           (0.0 20.0)
  end
  begin
     id 18 
     name lhumerus
     direction 1 -4.48967e-011 -3.18382e-028   
     length 5.17714   
     axis 180 -30 -90   XYZ
    dof rx ry rz
    limits (-60.0 90.0)
           (-90.0 90.0)
           (-90.0 90.0)
  end
  begin
     id 19
     name lradius
     direction 1 -4.48968e-011 -2.22911e-027   
     length 3.43679   
     axis 180 -30 -90   XYZ
    dof rx
    limits (-10.0 170.0)
  end
  begin
     id 20
     name lwrist
     direction 1 -4.48951e-011 -6.32245e-027   
     length 1.7184   
     axis 3.57107e-015 90 90   XYZ
    dof ry
    limits (-180.0 0.0)
 end
  begin
     id 21 
     name lhand
     direction 1 -4.48924e-011 -1.26431e-026   
     length 0.573117   
     axis 8.06912e-015 90 90   XYZ
    dof rx rz
    limits (-90.0 90.0)
           (-45.0 45.0)
  end
  begin
     id 22 
     name lfingers
     direction 1 -4.49001e-011 -2.52965e-026   
     length 0.462062   
     axis 1.61381e-014 90 90   XYZ
    dof rx
    limits (0.0 90.0)
  end
  begin
     id 23
     name lthumb
     direction 0.707107 -6.35008e-011 0.707107   
     length 0.663431   
     axis -90 45 -1.62303e-014   XYZ
    dof rx rz
    limits (-45.0 45.0)
           (-45.0 45.0)
  end
  begin
     id 24 
     name rclavicle
     direction -0.963917 0.256881 -0.0698287   
     length 3.73057  
     axis 0 0 0   XYZ 
    dof ry rz
    limits (-10.0 20.0)
           (-20.0 0.0)
  end
  begin
     id 25 
     name rhumerus
     direction -1 -4.48962e-011 -2.73982e-027  
     length 5.23908   
     axis 180 30 90   XYZ
    dof rx ry rz
    limits (-90.0 60.0)
           (-90.0 90.0)
           (-90.0 90.0)
  end
  begin
     id 26 
     name rradius
     direction -1 -4.48968e-011 -4.33218e-027   
     length 3.46485   
     axis 180 30 90   XYZ
    dof rx
    limits (-10.0 170.0)
  end
  begin
     id 27 
     name rwrist
     direction -1 -4.48989e-011 -6.32372e-027   
     length 1.73243   
     axis 3.57107e-015 -90 -90   XYZ
    dof ry
    limits (-180.0 0.0)
  end
  begin
     id 28
     name rhand
     direction -1 -4.48948e-011 -1.26448e-026   
     length 0.608752   
     axis 8.06912e-015 -90 -90   XYZ
    dof rx rz
    limits (-90.0 90.0)
           (-45.0 45.0)
  end
  begin
     id 29
     name rfingers
     direction -1 -4.48962e-011 -2.52913e-026   
     length 0.490792   
     axis 1.61381e-014 -90 -90   XYZ
    dof rx
    limits (0.0 90.0)
  end
  begin
     id 30
     name rthumb
     direction -0.707107 -6.34878e-011 0.707107   
     length 0.704682   
     axis -90 -45 1.62303e-014   XYZ
    dof rx rz
    limits (-45.0 45.0)
           (-45.0 45.0)
  end
:hierarchy
  begin
    root lhipjoint rhipjoint lowerback
    lhipjoint lfemur
    lfemur ltibia
    ltibia lfoot
    lfoot ltoes
    rhipjoint rfemur
    rfemur rtibia
    rtibia rfoot
    rfoot rtoes
    lowerback upperback
    upperback thorax
    thorax lowerneck lclavicle rclavicle
    lowerneck upperneck
    upperneck head
    lclavicle lhumerus
    lhumerus lradius
    lradius lwrist
    lwrist lhand lthumb
    lhand lfingers
    rclavicle rhumerus
    rhumerus rradius
    rradius rwrist
    rwrist rhand rthumb
    rhand rfingers
  end

#!OML:ASF G:\JayActor3\Patient Classification 1\Patient 1\Session 6\male.ASF
:FULLY-SPECIFIED
:DEGREES
1164
root 4.59936 16.0063 -2.99977 1084.87 -70.8445 -1088.98
lowerback 1.19482 -2.40565 -0.471915
upperback 6.98156 -3.39674 0.582889
thorax 6.64868 -1.79786 0.704864
lowerneck 17.4344 -10.1089 -4.95237
upperneck -11.0546 -14.1307 4.33183
head -5.46985 -7.02415 3.41526
rclavicle -3.38928e-014 8.74653e-015
rhumerus -17.5669 1.14788 -71.5151
rradius 26.0193
rwrist 6.36706
rhand -22.9571 -10.6031
rfingers 7.12502
rthumb 3.48452 -40.5543
lclavicle -3.38928e-014 8.74653e-015
lhumerus -26.8685 22.3837 65.293
lradius 20.0791
lwrist 17.1622
lhand -23.5455 6.49156
lfingers 7.12502
lthumb 2.91632 36.4514
rfemur -8.77958 -7.98216 19.3239
rtibia 45.1709
rfoot -41.5472 -26.6213
rtoes 4.73091
lfemur -1.0892 20.1979 -11.4853
ltibia 38.4371
lfoot -26.4814 18.06
ltoes -9.98572
1165
root 4.56274 16.0061 -3.02616 1086.04 -70.7183 -1090.32
lowerback 1.35849 -2.36006 0.207944
upperback 7.17684 -3.37831 0.812
thorax 6.73838 -1.76212 0.568268
lowerneck 17.6189 -10.1532 -4.91334
upperneck -11.0926 -14.1995 4.24659
head -5.51719 -7.05067 3.40257
rclavicle 3.13583e-014 -1.43125e-014
rhumerus -16.264 1.72162 -71.389
rradius 27.0218
rwrist 5.61493
rhand -23.1777 -10.6021
rfingers 7.12502
rthumb 3.27152 -40.5568
lclavicle 3.13583e-014 -1.43125e-014
lhumerus -28.1627 22.7959 64.1975
lradius 20.0753
lwrist 17.2851
lhand -24.3536 6.37217
lfingers 7.12502
lthumb 2.13583 36.3412
rfemur -8.13394 -8.01446 19.9954
rtibia 44.383
rfoot -41.7111 -26.9276
rtoes 5.04538
lfemur -2.23431 20.9807 -10.4271
ltibia 40.8907
lfoot -25.4443 17.588
ltoes -12.0049
1166
root 4.5257 16.009 -3.05529 1087.31 -70.5733 -1091.7
lowerback 1.5014 -2.31933 0.860756
upperback 7.35263 -3.36559 1.05187
thorax 6.82344 -1.72998 0.457454
lowerneck 17.7742 -10.1959 -4.85817
upperneck -11.1375 -14.2609 4.16637
head -5.56333 -7.07443 3.38725
rclavicle -9.39258e-015 1.09332e-014
rhumerus -15.0075 2.19142 -71.2822
rradius 28.0922
rwrist 4.79093
rhand -23.4084 -10.6208
rfingers 7.12502
rthumb 3.0487 -40.5787
lclavicle -9.39258e-015 1.09332e-014
lhumerus -29.4851 23.4265 63.0142
lradius 19.9028
lwrist 16.867
lhand -24.9366 6.39451
lfingers 7.12502
lthumb 1.57282 36.3685
rfemur -7.53253 -7.96916 20.7147
rtibia 43.5686
rfoot -41.7878 -27.2695
rtoes 5.2312
lfemur -3.6124 21.6832 -9.36275
ltibia 43.5664
lfoot -24.2019 17.1554
ltoes -13.8658
1167
root 4.48963 16.0148 -3.08652 1088.52 -70.3653 -1092.98
lowerback 1.65259 -2.2981 1.46574
upperback 7.50904 -3.37645 1.29022
thorax 6.88727 -1.71158 0.371877
lowerneck 17.8961 -10.238 -4.78342
upperneck -11.1981 -14.3159 4.08542
head -5.61097 -7.09552 3.36735
rclavicle -6.72389e-014 1.74931e-014
rhumerus -13.8069 2.57054 -71.205
rradius 29.241
rwrist 3.86864
rhand -23.652 -10.6567
rfingers 7.12502
rthumb 2.81343 -40.6179
lclavicle -6.72389e-014 1.74931e-014
lhumerus -30.8435 24.3431 61.6865
lradius 19.5249
lwrist 15.7956
lhand -25.2365 6.47794
lfingers 7.12502
lthumb 1.28315 36.4538
rfemur -6.96385 -7.92025 21.4187
rtibia 42.7403
rfoot -41.7356 -27.6303
rtoes 5.26033
lfemur -5.22072 22.2442 -8.3467
ltibia 46.4374
lfoot -22.7813 16.7177
ltoes -15.1733
1168
root 4.45445 16.0222 -3.11834 1089.63 -70.0914 -1094.13
lowerback 1.81387 -2.29555 2.03825
upperback 7.65293 -3.40974 1.52151
thorax 6.93434 -1.70555 0.297296
lowerneck 17.9906 -10.2799 -4.68611
upperneck -11.293 -14.3651 4.00426
head -5.66719 -7.11391 3.34391
rclavicle 3.75206e-014 -1.67973e-014
rhumerus -12.6766 2.86761 -71.1614
rradius 30.4795
rwrist 2.85003
rhand -23.942 -10.7
rfingers 7.12502
rthumb 2.53341 -40.6647
lclavicle 3.75206e-014 -1.67973e-014
lhumerus -32.2423 25.4056 60.2609
lradius 18.997
lwrist 14.2857
lhand -25.3401 6.62283
lfingers 7.12502
lthumb 1.18314 36.5993
rfemur -6.4219 -7.9204 22.0796
rtibia 41.9135
rfoot -41.5523 -27.9705
rtoes 5.16563
lfemur -7.04736 22.6782 -7.39654
ltibia 49.461
lfoot -21.0652 16.4179
ltoes -16.1022
